<svg width="40" height="40" viewBox="0 0 40 40" fill="none" xmlns="http://www.w3.org/2000/svg">
<path d="M3.33344 7.33344H9.2001C10.5262 7.33344 11.798 7.86022 12.7356 8.7979C13.6733 9.73558 14.2001 11.0074 14.2001 12.3334V13.2001C14.2001 14.5262 13.6733 15.798 12.7356 16.7356C11.798 17.6733 10.5262 18.2001 9.2001 18.2001H3.33344V7.33344Z" stroke="white" stroke-width="2.01098" stroke-linecap="round" stroke-linejoin="round"/>
<path d="M3.33337 18.1833H12.95C14.7182 18.1833 16.4138 18.8857 17.6641 20.1359C18.9143 21.3862 19.6167 23.0818 19.6167 24.85V26C19.6167 26.8754 19.4443 27.7423 19.1092 28.5512C18.7742 29.36 18.2831 30.0949 17.6641 30.714C17.045 31.3331 16.3101 31.8241 15.5013 32.1592C14.6924 32.4942 13.8255 32.6666 12.95 32.6666H3.33337V18.1833Z" stroke="white" stroke-width="2.01098" stroke-linecap="round" stroke-linejoin="round"/>
<path d="M29.8333 20H30.8333C32.3804 20 33.8642 20.6146 34.9581 21.7085C36.0521 22.8025 36.6667 24.2862 36.6667 25.8333V27.2333H24V25.8333C24 24.2862 24.6146 22.8025 25.7085 21.7085C26.8025 20.6146 28.2862 20 29.8333 20Z" stroke="white" stroke-width="2.01098" stroke-linecap="round" stroke-linejoin="round"/>
<path d="M24 27.2334C24 27.9469 24.1405 28.6534 24.4136 29.3126C24.6866 29.9718 25.0869 30.5708 25.5914 31.0754C26.0959 31.5799 26.6949 31.9801 27.3541 32.2531C28.0133 32.5262 28.7198 32.6667 29.4333 32.6667H33.05" stroke="white" stroke-width="2.01098" stroke-linecap="round" stroke-linejoin="round"/>
</svg>
