<svg width="120" height="120" viewBox="0 0 120 120" fill="none" xmlns="http://www.w3.org/2000/svg">
<g clip-path="url(#clip0_302_2)">
<rect width="120" height="120" rx="60" fill="black"/>
<path d="M48.2363 27.0903H74.6466C84.9861 27.0903 93.6574 30.5258 100.661 37.3968C107.664 44.2678 111.165 52.6748 111.165 62.6179C111.165 72.561 107.664 80.9681 100.661 87.839C93.6574 94.71 84.9861 98.1455 74.6466 98.1455H48.2363V27.0903ZM74.6466 40.8158H63.4978V84.4696H74.6466C80.5266 84.4696 85.5477 82.3555 89.7099 78.1272C93.8721 73.8989 95.9532 68.7457 95.9532 62.6675C95.9532 56.5563 93.9217 51.3865 89.8585 47.1582C85.7954 42.9299 80.7248 40.8158 74.6466 40.8158Z" fill="#FFBB1C"/>
<path d="M63.5392 27.0903H33.6108C26.3104 27.0903 20.2652 29.3862 15.4754 33.9778C10.6525 38.5365 8.24102 44.2017 8.24102 50.9736C8.24102 57.7124 10.6359 63.3777 15.4258 67.9694C20.2157 72.528 26.2773 74.8073 33.6108 74.8073H48.2777V98.1455H63.5392V27.0903ZM34.1063 40.8158H48.2777V61.0819H34.1063C31.0672 61.0819 28.5401 60.1074 26.5251 58.1584C24.477 56.2094 23.453 53.8145 23.453 50.9736C23.453 48.1327 24.477 45.7378 26.5251 43.7888C28.5401 41.8068 31.0672 40.8158 34.1063 40.8158Z" fill="#FFBB1C"/>
</g>
<defs>
<clipPath id="clip0_302_2">
<rect width="120" height="120" rx="60" fill="white"/>
</clipPath>
</defs>
</svg>
