<svg width="40" height="40" viewBox="0 0 40 40" fill="none" xmlns="http://www.w3.org/2000/svg">
<path d="M26.2501 1.25H13.7501C6.8465 1.25 1.25006 6.84644 1.25006 13.75V26.25C1.25006 33.1536 6.8465 38.75 13.7501 38.75H26.2501C33.1536 38.75 38.7501 33.1536 38.7501 26.25V13.75C38.7501 6.84644 33.1536 1.25 26.2501 1.25Z" stroke="white" stroke-width="2.01098" stroke-linecap="round" stroke-linejoin="round"/>
<path d="M20 28.3333C24.6023 28.3333 28.3333 24.6023 28.3333 20C28.3333 15.3976 24.6023 11.6666 20 11.6666C15.3976 11.6666 11.6666 15.3976 11.6666 20C11.6666 24.6023 15.3976 28.3333 20 28.3333Z" stroke="white" stroke-width="2.01098" stroke-linecap="round" stroke-linejoin="round"/>
<path d="M30.4167 11.4375C31.5673 11.4375 32.5 10.5048 32.5 9.35421C32.5 8.20361 31.5673 7.27087 30.4167 7.27087C29.2661 7.27087 28.3334 8.20361 28.3334 9.35421C28.3334 10.5048 29.2661 11.4375 30.4167 11.4375Z" fill="white"/>
</svg>
