<svg width="25" height="25" viewBox="0 0 25 25" fill="none" xmlns="http://www.w3.org/2000/svg">
<path d="M12.18 24.8215C11.9432 24.8215 11.7161 24.7274 11.5487 24.5599C11.3812 24.3925 11.2872 24.1654 11.2872 23.9286C11.2872 23.6918 11.3812 23.4647 11.5487 23.2972C11.7161 23.1298 11.9432 23.0357 12.18 23.0357C14.9743 23.0357 17.6541 21.9257 19.6299 19.9499C21.6057 17.9741 22.7157 15.2943 22.7157 12.5C22.7157 9.70577 21.6057 7.02597 19.6299 5.05014C17.6541 3.07431 14.9743 1.9643 12.18 1.9643C11.9432 1.9643 11.7161 1.87023 11.5487 1.70279C11.3812 1.53535 11.2872 1.30825 11.2872 1.07145C11.2872 0.834646 11.3812 0.607544 11.5487 0.440101C11.7161 0.272657 11.9432 0.178589 12.18 0.178589C15.4479 0.178589 18.5819 1.47674 20.8926 3.78745C23.2033 6.09817 24.5015 9.23217 24.5015 12.5C24.5015 15.7679 23.2033 18.9019 20.8926 21.2126C18.5819 23.5233 15.4479 24.8215 12.18 24.8215Z" fill="white"/>
<path d="M14.0186 13.3928H1.39078C1.15398 13.3928 0.92688 13.2988 0.759437 13.1313C0.591993 12.9639 0.497925 12.7368 0.497925 12.5C0.497925 12.2632 0.591993 12.0361 0.759437 11.8686C0.92688 11.7012 1.15398 11.6071 1.39078 11.6071H14.0186C14.2554 11.6071 14.4825 11.7012 14.65 11.8686C14.8174 12.0361 14.9115 12.2632 14.9115 12.5C14.9115 12.7368 14.8174 12.9639 14.65 13.1313C14.4825 13.2988 14.2554 13.3928 14.0186 13.3928Z" fill="white"/>
<path d="M9.45283 18.8843C9.27563 18.8849 9.10225 18.8328 8.95478 18.7345C8.8073 18.6363 8.69239 18.4964 8.62468 18.3326C8.55697 18.1688 8.53952 17.9886 8.57455 17.8149C8.60959 17.6412 8.69552 17.4819 8.8214 17.3571L13.3814 12.7964C13.4208 12.7571 13.452 12.7104 13.4733 12.659C13.4946 12.6076 13.5056 12.5524 13.5056 12.4968C13.5056 12.4411 13.4946 12.386 13.4733 12.3346C13.452 12.2832 13.4208 12.2365 13.3814 12.1971L8.8214 7.64286C8.7361 7.56052 8.66806 7.46202 8.62123 7.3531C8.57441 7.24418 8.54974 7.12702 8.54868 7.00847C8.54762 6.88992 8.57018 6.77234 8.61504 6.6626C8.6599 6.55286 8.72617 6.45315 8.80998 6.3693C8.89379 6.28544 8.99346 6.21911 9.10317 6.17419C9.21289 6.12926 9.33045 6.10664 9.44901 6.10764C9.56756 6.10863 9.68473 6.13323 9.79367 6.17999C9.90262 6.22676 10.0012 6.29475 10.0835 6.38L14.6428 10.9379C15.0559 11.3528 15.2878 11.9145 15.2878 12.5C15.2878 13.0855 15.0559 13.6472 14.6428 14.0621L10.0821 18.6229C9.99954 18.7056 9.90146 18.7713 9.79349 18.8162C9.68551 18.861 9.56976 18.8842 9.45283 18.8843V18.8843Z" fill="white"/>
</svg>
