<svg width="49" height="44" viewBox="0 0 49 44" fill="none" xmlns="http://www.w3.org/2000/svg">
<path d="M44.2401 1.29585C43.6399 1.32355 43.0747 1.4967 42.5722 1.69062H42.5653C42.0558 1.89147 39.6344 2.90265 35.9568 4.43327C32.2792 5.97082 27.506 7.96547 22.7677 9.94628C13.305 13.901 4.00289 17.7933 4.00289 17.7933L4.11454 17.7517C4.11454 17.7517 3.47253 17.9595 2.80261 18.4166C2.46067 18.6383 2.08384 18.943 1.75586 19.4209C1.42788 19.8988 1.1627 20.6329 1.2604 21.3878C1.4209 22.6691 2.2583 23.4379 2.85844 23.8604C3.46556 24.2898 4.04476 24.4906 4.04476 24.4906H4.05872L12.7817 27.4064C13.1724 28.6531 15.4404 36.0499 15.9847 37.7537C16.3057 38.7718 16.6197 39.409 17.0105 39.8938C17.199 40.1431 17.4223 40.3509 17.6874 40.5171C17.7921 40.5795 17.9038 40.6279 18.0154 40.6695C18.0503 40.6903 18.0852 40.6972 18.1271 40.7041L18.0364 40.6834C18.0643 40.6903 18.0852 40.7111 18.1061 40.718C18.1759 40.7388 18.2248 40.7457 18.3155 40.7595C19.6972 41.1751 20.8068 40.3232 20.8068 40.3232L20.8696 40.2747L26.0196 35.6205L34.6518 42.1932L34.8472 42.2763C36.6476 43.0589 38.469 42.6226 39.432 41.8538C40.402 41.0781 40.7788 40.0877 40.7788 40.0877L40.8416 39.9284L47.5129 6.01237C47.7013 5.17434 47.7502 4.39172 47.5408 3.62987C47.3315 2.86802 46.7941 2.15466 46.1452 1.77373C45.4892 1.38588 44.8402 1.26814 44.2401 1.29585ZM44.0586 4.93194C44.0516 5.04275 44.0726 5.0289 44.0237 5.2436V5.26438L37.4152 38.8272C37.3873 38.8757 37.3385 38.9796 37.2059 39.0835C37.0663 39.1943 36.9547 39.2635 36.3755 39.035L25.8172 31.001L19.439 36.7702L20.7788 28.2791C20.7788 28.2791 37.3175 12.9798 38.0293 12.3219C38.7411 11.6639 38.5039 11.5254 38.5039 11.5254C38.5527 10.722 37.4292 11.2899 37.4292 11.2899L15.6777 24.6638L15.6707 24.6292L5.24504 21.1454V21.1385C5.23806 21.1385 5.2241 21.1316 5.21712 21.1316C5.2241 21.1316 5.27295 21.1108 5.27295 21.1108L5.32878 21.0831L5.3846 21.0623C5.3846 21.0623 14.6937 17.17 24.1564 13.2153C28.8947 11.2345 33.6679 9.23984 37.3385 7.70229C41.0091 6.17167 43.7237 5.04968 43.8772 4.98734C44.0237 4.93194 43.9539 4.93194 44.0586 4.93194Z" fill="white"/>
</svg>
