<svg width="20" height="20" viewBox="0 0 20 20" fill="none" xmlns="http://www.w3.org/2000/svg">
<path d="M10 0H9.09813V4.75527H10.9013V1.85305C15.0331 2.30292 18.1956 5.78291 18.1956 10.0001C18.1956 14.5199 14.5187 18.1967 10 18.1967C5.48109 18.1967 1.80438 14.5199 1.80438 10.0001C1.80438 8.15019 2.40548 6.40466 3.54203 4.95269L3.85983 4.54785L2.43916 3.43606L2.12206 3.84096C0.733802 5.61351 0 7.7435 0 10C0 15.5137 4.48575 20 10 20C15.5137 20 20 15.5144 20 10C20 4.48575 15.5137 0 10 0Z" fill="white"/>
<path d="M8.56274 11.5319C8.88945 11.9236 9.34852 12.1642 9.85418 12.2093C9.91257 12.2149 9.97091 12.2176 10.0283 12.2176C11.0039 12.2176 11.8377 11.4552 11.9252 10.4831C11.9711 9.97676 11.8168 9.48204 11.4905 9.08988C11.1638 8.69771 10.7051 8.45684 10.198 8.41065C10.0313 8.39607 9.86228 8.40492 9.68263 8.44023L4.1748 3.77258L8.22076 9.71846C8.16988 9.86651 8.13892 10.0047 8.12671 10.1392C8.08093 10.6454 8.23575 11.1403 8.56274 11.5319Z" fill="white"/>
</svg>
