<svg width="150" height="149" viewBox="0 0 150 149" fill="none" xmlns="http://www.w3.org/2000/svg">
<path d="M145.055 122.073C147.786 122.073 150 119.859 150 117.127V10.3665C150 7.63542 147.786 5.42145 145.055 5.42145H4.94505C2.21398 5.42145 0 7.63542 0 10.3665V117.127C0 119.859 2.21398 122.073 4.94505 122.073H50.869C53.6001 122.073 55.8141 124.287 55.8141 127.018V127.732C55.8141 130.463 53.6001 132.677 50.869 132.677H48.5499C45.8189 132.677 43.6049 134.891 43.6049 137.622V138.337C43.6049 141.068 45.8189 143.282 48.5499 143.282H101.451C104.182 143.282 106.396 141.068 106.396 138.337V137.622C106.396 134.891 104.182 132.677 101.451 132.677H99.1316C96.4005 132.677 94.1865 130.463 94.1865 127.732V127.018C94.1865 124.287 96.4005 122.073 99.1316 122.073H145.055ZM10.4651 20.9712C10.4651 18.2401 12.6791 16.0261 15.4102 16.0261H134.59C137.321 16.0261 139.535 18.2401 139.535 20.9712V85.3135C139.535 88.0445 137.321 90.2585 134.59 90.2585H15.4102C12.6791 90.2585 10.4651 88.0445 10.4651 85.3135V20.9712ZM83.7208 127.732C83.7208 130.463 81.5068 132.677 78.7757 132.677H71.224C68.4929 132.677 66.2789 130.463 66.2789 127.732V127.018C66.2789 124.287 68.4929 122.073 71.224 122.073H78.7757C81.5068 122.073 83.7208 124.287 83.7208 127.018V127.732ZM15.4102 111.468C12.6791 111.468 10.4651 109.254 10.4651 106.523V105.808C10.4651 103.077 12.6791 100.863 15.4102 100.863H134.59C137.321 100.863 139.535 103.077 139.535 105.808V106.523C139.535 109.254 137.321 111.468 134.59 111.468H15.4102Z" fill="#EEEEEE"/>
</svg>
